<?xml version="1.0" encoding="UTF-8"?>
<svg xmlns="http://www.w3.org/2000/svg" xmlns:xlink="http://www.w3.org/1999/xlink" width="366pt" height="61pt" viewBox="0 0 366 61" version="1.1">
<g id="surface1">
<path style="fill-rule:nonzero;fill:rgb(100%,100%,100%);fill-opacity:1;stroke-width:1;stroke-linecap:round;stroke-linejoin:round;stroke:rgb(0%,0%,0%);stroke-opacity:1;stroke-miterlimit:10;" d="M 142.5 19.903125 L 225.5 19.903125 L 225.5 51.403125 L 142.5 51.403125 Z M 142.5 19.903125 " transform="matrix(1.25,0,0,1.25,-17.5,-13.75)"/>
<path style=" stroke:none;fill-rule:nonzero;fill:rgb(0%,0%,0%);fill-opacity:1;" d="M 175.304688 35.03125 L 177.453125 27.003906 L 176.398438 27.003906 L 174.757812 33.683594 L 174.738281 33.683594 L 172.960938 27.003906 L 171.808594 27.003906 L 170.011719 33.683594 L 169.972656 33.683594 L 168.410156 27.003906 L 167.316406 27.003906 L 169.367188 35.03125 L 170.480469 35.03125 L 172.335938 28.273438 L 172.375 28.273438 L 174.191406 35.03125 Z M 175.304688 35.03125 "/>
<path style=" stroke:none;fill-rule:nonzero;fill:rgb(0%,0%,0%);fill-opacity:1;" d="M 183.058594 35.011719 C 182.886719 35.101562 182.660156 35.148438 182.375 35.148438 C 182.125 35.148438 181.925781 35.082031 181.769531 34.953125 C 181.625 34.8125 181.554688 34.582031 181.554688 34.269531 C 181.292969 34.582031 180.988281 34.8125 180.636719 34.953125 C 180.285156 35.082031 179.90625 35.148438 179.503906 35.148438 C 179.242188 35.148438 178.996094 35.117188 178.761719 35.050781 C 178.527344 35.003906 178.316406 34.914062 178.136719 34.796875 C 177.964844 34.671875 177.828125 34.5 177.726562 34.289062 C 177.632812 34.085938 177.589844 33.832031 177.589844 33.527344 C 177.589844 33.207031 177.640625 32.9375 177.746094 32.726562 C 177.863281 32.523438 178.011719 32.351562 178.195312 32.21875 C 178.375 32.09375 178.585938 31.996094 178.820312 31.925781 C 179.066406 31.847656 179.3125 31.789062 179.5625 31.75 C 179.820312 31.703125 180.070312 31.664062 180.304688 31.632812 C 180.539062 31.609375 180.746094 31.570312 180.929688 31.515625 C 181.109375 31.46875 181.253906 31.394531 181.359375 31.300781 C 181.460938 31.214844 181.515625 31.078125 181.515625 30.890625 C 181.515625 30.6875 181.476562 30.515625 181.398438 30.382812 C 181.320312 30.257812 181.214844 30.160156 181.085938 30.089844 C 180.96875 30.027344 180.832031 29.984375 180.675781 29.953125 C 180.519531 29.929688 180.367188 29.914062 180.226562 29.914062 C 179.808594 29.914062 179.464844 29.992188 179.191406 30.148438 C 178.929688 30.304688 178.785156 30.597656 178.761719 31.027344 L 177.804688 31.027344 C 177.816406 30.667969 177.886719 30.359375 178.019531 30.109375 C 178.160156 29.867188 178.34375 29.671875 178.566406 29.523438 C 178.800781 29.367188 179.058594 29.261719 179.347656 29.191406 C 179.632812 29.113281 179.9375 29.074219 180.265625 29.074219 C 180.539062 29.074219 180.796875 29.09375 181.046875 29.132812 C 181.304688 29.171875 181.539062 29.25 181.75 29.367188 C 181.96875 29.484375 182.140625 29.652344 182.257812 29.855469 C 182.386719 30.066406 182.453125 30.339844 182.453125 30.675781 L 182.453125 33.664062 C 182.453125 33.898438 182.464844 34.070312 182.492188 34.171875 C 182.515625 34.28125 182.609375 34.328125 182.765625 34.328125 C 182.84375 34.328125 182.941406 34.308594 183.058594 34.269531 Z M 181.496094 32.023438 C 181.378906 32.117188 181.222656 32.179688 181.027344 32.21875 C 180.832031 32.257812 180.621094 32.292969 180.402344 32.316406 C 180.191406 32.347656 179.976562 32.375 179.757812 32.414062 C 179.546875 32.453125 179.351562 32.511719 179.171875 32.589844 C 179 32.660156 178.863281 32.761719 178.761719 32.902344 C 178.65625 33.050781 178.605469 33.234375 178.605469 33.46875 C 178.605469 33.625 178.628906 33.761719 178.683594 33.878906 C 178.746094 33.988281 178.832031 34.070312 178.9375 34.132812 C 179.039062 34.203125 179.15625 34.25 179.289062 34.289062 C 179.429688 34.320312 179.574219 34.328125 179.71875 34.328125 C 180.03125 34.328125 180.296875 34.285156 180.519531 34.191406 C 180.753906 34.105469 180.941406 33.992188 181.085938 33.859375 C 181.226562 33.734375 181.332031 33.597656 181.398438 33.449219 C 181.460938 33.292969 181.496094 33.148438 181.496094 33 Z M 181.496094 32.023438 "/>
<path style=" stroke:none;fill-rule:nonzero;fill:rgb(0%,0%,0%);fill-opacity:1;" d="M 184.003906 27.003906 L 184.003906 35.03125 L 184.960938 35.03125 L 184.960938 32.824219 L 185.859375 31.984375 L 187.851562 35.03125 L 189.0625 35.03125 L 186.582031 31.320312 L 188.886719 29.210938 L 187.617188 29.210938 L 184.960938 31.75 L 184.960938 27.003906 Z M 184.003906 27.003906 "/>
<path style=" stroke:none;fill-rule:nonzero;fill:rgb(0%,0%,0%);fill-opacity:1;" d="M 193.828125 31.574219 L 190.488281 31.574219 C 190.496094 31.339844 190.546875 31.125 190.625 30.929688 C 190.703125 30.734375 190.808594 30.570312 190.957031 30.421875 C 191.097656 30.265625 191.269531 30.144531 191.464844 30.050781 C 191.667969 29.964844 191.898438 29.914062 192.148438 29.914062 C 192.382812 29.914062 192.597656 29.964844 192.792969 30.050781 C 192.996094 30.144531 193.171875 30.261719 193.320312 30.402344 C 193.460938 30.550781 193.574219 30.726562 193.652344 30.929688 C 193.738281 31.125 193.796875 31.339844 193.828125 31.574219 Z M 194.746094 33.195312 L 193.789062 33.195312 C 193.710938 33.578125 193.539062 33.859375 193.28125 34.054688 C 193.015625 34.242188 192.683594 34.328125 192.285156 34.328125 C 191.972656 34.328125 191.699219 34.28125 191.464844 34.171875 C 191.230469 34.070312 191.035156 33.933594 190.878906 33.761719 C 190.730469 33.582031 190.628906 33.371094 190.566406 33.136719 C 190.496094 32.902344 190.472656 32.664062 190.488281 32.414062 L 194.824219 32.414062 C 194.847656 32.0625 194.824219 31.691406 194.746094 31.300781 C 194.667969 30.910156 194.519531 30.554688 194.316406 30.226562 C 194.105469 29.890625 193.828125 29.617188 193.476562 29.40625 C 193.132812 29.1875 192.714844 29.074219 192.207031 29.074219 C 191.800781 29.074219 191.429688 29.152344 191.09375 29.308594 C 190.765625 29.457031 190.476562 29.660156 190.234375 29.933594 C 189.984375 30.207031 189.792969 30.53125 189.667969 30.890625 C 189.535156 31.257812 189.472656 31.664062 189.472656 32.101562 C 189.480469 32.546875 189.550781 32.957031 189.667969 33.332031 C 189.785156 33.714844 189.949219 34.035156 190.175781 34.308594 C 190.410156 34.574219 190.691406 34.777344 191.035156 34.933594 C 191.386719 35.078125 191.796875 35.148438 192.265625 35.148438 C 192.914062 35.148438 193.457031 34.988281 193.886719 34.660156 C 194.324219 34.339844 194.613281 33.851562 194.746094 33.195312 Z M 194.746094 33.195312 "/>
<path style=" stroke:none;fill-rule:nonzero;fill:rgb(0%,0%,0%);fill-opacity:1;" d="M 204.714844 35.03125 L 206.570312 29.210938 L 205.574219 29.210938 L 204.265625 33.976562 L 204.246094 33.976562 L 203.035156 29.210938 L 201.980469 29.210938 L 200.808594 33.976562 L 200.789062 33.976562 L 199.480469 29.210938 L 198.425781 29.210938 L 200.28125 35.03125 L 201.316406 35.03125 L 202.488281 30.402344 L 202.507812 30.402344 L 203.699219 35.03125 Z M 204.714844 35.03125 "/>
<path style=" stroke:none;fill-rule:nonzero;fill:rgb(0%,0%,0%);fill-opacity:1;" d="M 208.183594 32.121094 C 208.183594 31.769531 208.226562 31.457031 208.320312 31.183594 C 208.40625 30.910156 208.535156 30.6875 208.691406 30.5 C 208.855469 30.304688 209.050781 30.164062 209.277344 30.070312 C 209.496094 29.96875 209.730469 29.914062 209.980469 29.914062 C 210.222656 29.914062 210.457031 29.96875 210.683594 30.070312 C 210.902344 30.164062 211.097656 30.304688 211.269531 30.5 C 211.433594 30.6875 211.566406 30.910156 211.660156 31.183594 C 211.746094 31.457031 211.796875 31.769531 211.796875 32.121094 C 211.796875 32.472656 211.746094 32.796875 211.660156 33.078125 C 211.566406 33.351562 211.433594 33.582031 211.269531 33.761719 C 211.097656 33.949219 210.902344 34.089844 210.683594 34.191406 C 210.457031 34.285156 210.222656 34.328125 209.980469 34.328125 C 209.730469 34.328125 209.496094 34.285156 209.277344 34.191406 C 209.050781 34.089844 208.855469 33.949219 208.691406 33.761719 C 208.535156 33.582031 208.40625 33.351562 208.320312 33.078125 C 208.226562 32.796875 208.183594 32.472656 208.183594 32.121094 Z M 207.167969 32.121094 C 207.167969 32.550781 207.226562 32.957031 207.34375 33.332031 C 207.460938 33.699219 207.636719 34.015625 207.871094 34.289062 C 208.113281 34.5625 208.417969 34.777344 208.769531 34.933594 C 209.121094 35.078125 209.519531 35.148438 209.980469 35.148438 C 210.449219 35.148438 210.859375 35.078125 211.210938 34.933594 C 211.5625 34.777344 211.855469 34.5625 212.089844 34.289062 C 212.324219 34.015625 212.5 33.699219 212.617188 33.332031 C 212.742188 32.957031 212.8125 32.550781 212.8125 32.121094 C 212.8125 31.707031 212.742188 31.316406 212.617188 30.949219 C 212.5 30.574219 212.324219 30.246094 212.089844 29.972656 C 211.855469 29.691406 211.5625 29.464844 211.210938 29.308594 C 210.859375 29.152344 210.449219 29.074219 209.980469 29.074219 C 209.519531 29.074219 209.121094 29.152344 208.769531 29.308594 C 208.417969 29.464844 208.113281 29.691406 207.871094 29.972656 C 207.636719 30.246094 207.460938 30.574219 207.34375 30.949219 C 207.226562 31.316406 207.167969 31.707031 207.167969 32.121094 Z M 207.167969 32.121094 "/>
<path style=" stroke:none;fill-rule:nonzero;fill:rgb(0%,0%,0%);fill-opacity:1;" d="M 213.898438 29.210938 L 213.898438 35.03125 L 214.855469 35.03125 L 214.855469 32.453125 C 214.855469 32.078125 214.894531 31.746094 214.972656 31.457031 C 215.050781 31.160156 215.167969 30.910156 215.324219 30.714844 C 215.488281 30.511719 215.703125 30.355469 215.96875 30.246094 C 216.242188 30.144531 216.574219 30.089844 216.964844 30.089844 L 216.964844 29.074219 C 216.441406 29.066406 216.011719 29.171875 215.675781 29.40625 C 215.332031 29.632812 215.050781 29.972656 214.816406 30.441406 L 214.796875 30.441406 L 214.796875 29.210938 Z M 213.898438 29.210938 "/>
<path style=" stroke:none;fill-rule:nonzero;fill:rgb(0%,0%,0%);fill-opacity:1;" d="M 218.183594 32.179688 C 218.183594 31.898438 218.207031 31.613281 218.261719 31.339844 C 218.324219 31.066406 218.421875 30.828125 218.554688 30.617188 C 218.695312 30.414062 218.878906 30.242188 219.101562 30.109375 C 219.320312 29.984375 219.59375 29.914062 219.921875 29.914062 C 220.246094 29.914062 220.527344 29.984375 220.761719 30.109375 C 220.996094 30.242188 221.183594 30.414062 221.328125 30.617188 C 221.46875 30.8125 221.574219 31.046875 221.640625 31.320312 C 221.71875 31.585938 221.757812 31.847656 221.757812 32.121094 C 221.757812 32.394531 221.722656 32.664062 221.660156 32.921875 C 221.59375 33.1875 221.488281 33.421875 221.347656 33.625 C 221.203125 33.835938 221.019531 34.007812 220.800781 34.132812 C 220.578125 34.265625 220.304688 34.328125 219.980469 34.328125 C 219.667969 34.328125 219.394531 34.269531 219.160156 34.152344 C 218.9375 34.027344 218.753906 33.859375 218.613281 33.664062 C 218.46875 33.460938 218.359375 33.226562 218.28125 32.960938 C 218.214844 32.703125 218.183594 32.445312 218.183594 32.179688 Z M 222.675781 35.03125 L 222.675781 27.003906 L 221.71875 27.003906 L 221.71875 29.992188 L 221.699219 29.992188 C 221.59375 29.828125 221.464844 29.679688 221.308594 29.5625 C 221.152344 29.445312 220.988281 29.359375 220.820312 29.289062 C 220.648438 29.210938 220.472656 29.164062 220.292969 29.132812 C 220.121094 29.09375 219.964844 29.074219 219.824219 29.074219 C 219.378906 29.074219 218.988281 29.164062 218.652344 29.328125 C 218.3125 29.484375 218.03125 29.699219 217.8125 29.972656 C 217.589844 30.246094 217.425781 30.574219 217.324219 30.949219 C 217.21875 31.316406 217.167969 31.703125 217.167969 32.101562 C 217.167969 32.523438 217.21875 32.914062 217.324219 33.273438 C 217.441406 33.640625 217.609375 33.96875 217.832031 34.25 C 218.050781 34.523438 218.324219 34.75 218.652344 34.914062 C 218.988281 35.070312 219.386719 35.148438 219.84375 35.148438 C 220.246094 35.148438 220.617188 35.078125 220.957031 34.933594 C 221.292969 34.792969 221.542969 34.5625 221.699219 34.25 L 221.71875 34.25 L 221.71875 35.03125 Z M 222.675781 35.03125 "/>
<path style=" stroke:none;fill-rule:nonzero;fill:rgb(0%,0%,0%);fill-opacity:1;" d="M 227.28125 29.210938 L 227.28125 35.03125 L 228.238281 35.03125 L 228.238281 31.417969 C 228.238281 31.300781 228.261719 31.160156 228.316406 30.988281 C 228.363281 30.824219 228.453125 30.65625 228.570312 30.5 C 228.695312 30.34375 228.863281 30.207031 229.058594 30.089844 C 229.261719 29.972656 229.507812 29.914062 229.78125 29.914062 C 230 29.914062 230.175781 29.949219 230.308594 30.011719 C 230.449219 30.082031 230.5625 30.167969 230.640625 30.285156 C 230.726562 30.402344 230.785156 30.539062 230.816406 30.695312 C 230.855469 30.851562 230.875 31.027344 230.875 31.222656 L 230.875 35.03125 L 231.832031 35.03125 L 231.832031 31.417969 C 231.832031 30.964844 231.96875 30.597656 232.242188 30.324219 C 232.515625 30.050781 232.886719 29.914062 233.355469 29.914062 C 233.589844 29.914062 233.773438 29.953125 233.921875 30.03125 C 234.0625 30.101562 234.175781 30.1875 234.253906 30.304688 C 234.339844 30.421875 234.398438 30.558594 234.429688 30.714844 C 234.46875 30.871094 234.488281 31.042969 234.488281 31.222656 L 234.488281 35.03125 L 235.425781 35.03125 L 235.425781 30.773438 C 235.425781 30.476562 235.375 30.222656 235.289062 30.011719 C 235.195312 29.792969 235.0625 29.617188 234.898438 29.484375 C 234.726562 29.34375 234.527344 29.242188 234.292969 29.171875 C 234.058594 29.109375 233.789062 29.074219 233.492188 29.074219 C 233.109375 29.074219 232.757812 29.167969 232.4375 29.347656 C 232.125 29.519531 231.871094 29.757812 231.675781 30.070312 C 231.558594 29.710938 231.347656 29.457031 231.050781 29.308594 C 230.761719 29.152344 230.433594 29.074219 230.074219 29.074219 C 229.261719 29.074219 228.636719 29.40625 228.199219 30.070312 L 228.179688 30.070312 L 228.179688 29.210938 Z M 227.28125 29.210938 "/>
<path style=" stroke:none;fill-rule:nonzero;fill:rgb(0%,0%,0%);fill-opacity:1;" d="M 237.578125 32.121094 C 237.578125 31.769531 237.621094 31.457031 237.714844 31.183594 C 237.804688 30.910156 237.929688 30.6875 238.085938 30.5 C 238.253906 30.304688 238.449219 30.164062 238.671875 30.070312 C 238.890625 29.96875 239.125 29.914062 239.375 29.914062 C 239.621094 29.914062 239.855469 29.96875 240.078125 30.070312 C 240.296875 30.164062 240.492188 30.304688 240.664062 30.5 C 240.832031 30.6875 240.960938 30.910156 241.054688 31.183594 C 241.144531 31.457031 241.191406 31.769531 241.191406 32.121094 C 241.191406 32.472656 241.144531 32.796875 241.054688 33.078125 C 240.960938 33.351562 240.832031 33.582031 240.664062 33.761719 C 240.492188 33.949219 240.296875 34.089844 240.078125 34.191406 C 239.855469 34.285156 239.621094 34.328125 239.375 34.328125 C 239.125 34.328125 238.890625 34.285156 238.671875 34.191406 C 238.449219 34.089844 238.253906 33.949219 238.085938 33.761719 C 237.929688 33.582031 237.804688 33.351562 237.714844 33.078125 C 237.621094 32.796875 237.578125 32.472656 237.578125 32.121094 Z M 236.5625 32.121094 C 236.5625 32.550781 236.621094 32.957031 236.738281 33.332031 C 236.855469 33.699219 237.03125 34.015625 237.265625 34.289062 C 237.511719 34.5625 237.8125 34.777344 238.164062 34.933594 C 238.515625 35.078125 238.917969 35.148438 239.375 35.148438 C 239.84375 35.148438 240.253906 35.078125 240.605469 34.933594 C 240.957031 34.777344 241.25 34.5625 241.484375 34.289062 C 241.71875 34.015625 241.894531 33.699219 242.011719 33.332031 C 242.140625 32.957031 242.207031 32.550781 242.207031 32.121094 C 242.207031 31.707031 242.140625 31.316406 242.011719 30.949219 C 241.894531 30.574219 241.71875 30.246094 241.484375 29.972656 C 241.25 29.691406 240.957031 29.464844 240.605469 29.308594 C 240.253906 29.152344 239.84375 29.074219 239.375 29.074219 C 238.917969 29.074219 238.515625 29.152344 238.164062 29.308594 C 237.8125 29.464844 237.511719 29.691406 237.265625 29.972656 C 237.03125 30.246094 236.855469 30.574219 236.738281 30.949219 C 236.621094 31.316406 236.5625 31.707031 236.5625 32.121094 Z M 236.5625 32.121094 "/>
<path style=" stroke:none;fill-rule:nonzero;fill:rgb(0%,0%,0%);fill-opacity:1;" d="M 244.035156 32.179688 C 244.035156 31.898438 244.0625 31.613281 244.113281 31.339844 C 244.179688 31.066406 244.277344 30.828125 244.40625 30.617188 C 244.550781 30.414062 244.730469 30.242188 244.953125 30.109375 C 245.175781 29.984375 245.449219 29.914062 245.773438 29.914062 C 246.097656 29.914062 246.378906 29.984375 246.613281 30.109375 C 246.847656 30.242188 247.035156 30.414062 247.179688 30.617188 C 247.324219 30.8125 247.425781 31.046875 247.492188 31.320312 C 247.570312 31.585938 247.609375 31.847656 247.609375 32.121094 C 247.609375 32.394531 247.578125 32.664062 247.511719 32.921875 C 247.445312 33.1875 247.34375 33.421875 247.199219 33.625 C 247.054688 33.835938 246.875 34.007812 246.652344 34.132812 C 246.429688 34.265625 246.15625 34.328125 245.832031 34.328125 C 245.519531 34.328125 245.246094 34.269531 245.011719 34.152344 C 244.789062 34.027344 244.609375 33.859375 244.464844 33.664062 C 244.320312 33.460938 244.210938 33.226562 244.132812 32.960938 C 244.066406 32.703125 244.035156 32.445312 244.035156 32.179688 Z M 248.527344 35.03125 L 248.527344 27.003906 L 247.570312 27.003906 L 247.570312 29.992188 L 247.550781 29.992188 C 247.445312 29.828125 247.316406 29.679688 247.160156 29.5625 C 247.003906 29.445312 246.839844 29.359375 246.671875 29.289062 C 246.503906 29.210938 246.328125 29.164062 246.144531 29.132812 C 245.976562 29.09375 245.820312 29.074219 245.675781 29.074219 C 245.234375 29.074219 244.84375 29.164062 244.503906 29.328125 C 244.164062 29.484375 243.886719 29.699219 243.664062 29.972656 C 243.441406 30.246094 243.28125 30.574219 243.175781 30.949219 C 243.070312 31.316406 243.019531 31.703125 243.019531 32.101562 C 243.019531 32.523438 243.070312 32.914062 243.175781 33.273438 C 243.292969 33.640625 243.460938 33.96875 243.683594 34.25 C 243.90625 34.523438 244.179688 34.75 244.503906 34.914062 C 244.84375 35.070312 245.238281 35.148438 245.695312 35.148438 C 246.097656 35.148438 246.46875 35.078125 246.808594 34.933594 C 247.148438 34.792969 247.394531 34.5625 247.550781 34.25 L 247.570312 34.25 L 247.570312 35.03125 Z M 248.527344 35.03125 "/>
<path style=" stroke:none;fill-rule:nonzero;fill:rgb(0%,0%,0%);fill-opacity:1;" d="M 254.046875 31.574219 L 250.707031 31.574219 C 250.71875 31.339844 250.765625 31.125 250.84375 30.929688 C 250.921875 30.734375 251.03125 30.570312 251.175781 30.421875 C 251.316406 30.265625 251.488281 30.144531 251.683594 30.050781 C 251.890625 29.964844 252.117188 29.914062 252.367188 29.914062 C 252.601562 29.914062 252.816406 29.964844 253.011719 30.050781 C 253.21875 30.144531 253.394531 30.261719 253.539062 30.402344 C 253.679688 30.550781 253.792969 30.726562 253.871094 30.929688 C 253.960938 31.125 254.019531 31.339844 254.046875 31.574219 Z M 254.964844 33.195312 L 254.007812 33.195312 C 253.929688 33.578125 253.757812 33.859375 253.5 34.054688 C 253.238281 34.242188 252.90625 34.328125 252.503906 34.328125 C 252.191406 34.328125 251.917969 34.28125 251.683594 34.171875 C 251.449219 34.070312 251.253906 33.933594 251.097656 33.761719 C 250.953125 33.582031 250.847656 33.371094 250.785156 33.136719 C 250.71875 32.902344 250.691406 32.664062 250.707031 32.414062 L 255.042969 32.414062 C 255.066406 32.0625 255.042969 31.691406 254.964844 31.300781 C 254.886719 30.910156 254.742188 30.554688 254.535156 30.226562 C 254.324219 29.890625 254.046875 29.617188 253.695312 29.40625 C 253.355469 29.1875 252.933594 29.074219 252.425781 29.074219 C 252.019531 29.074219 251.648438 29.152344 251.3125 29.308594 C 250.984375 29.457031 250.699219 29.660156 250.453125 29.933594 C 250.203125 30.207031 250.015625 30.53125 249.886719 30.890625 C 249.753906 31.257812 249.691406 31.664062 249.691406 32.101562 C 249.703125 32.546875 249.769531 32.957031 249.886719 33.332031 C 250.003906 33.714844 250.171875 34.035156 250.394531 34.308594 C 250.628906 34.574219 250.914062 34.777344 251.253906 34.933594 C 251.605469 35.078125 252.015625 35.148438 252.484375 35.148438 C 253.132812 35.148438 253.675781 34.988281 254.105469 34.660156 C 254.546875 34.339844 254.832031 33.851562 254.964844 33.195312 Z M 254.964844 33.195312 "/>
<path style=" stroke:none;fill-rule:nonzero;fill:rgb(0%,0%,0%);fill-opacity:1;" d="M 256.105469 27.003906 L 256.105469 35.03125 L 257.0625 35.03125 L 257.0625 27.003906 Z M 256.105469 27.003906 "/>
<path style=" stroke:none;fill-rule:nonzero;fill:rgb(0%,0%,0%);fill-opacity:1;" d="M 52.007812 28.179688 C 50.523438 26.695312 48.085938 26.710938 46.585938 28.203125 C 45.085938 29.703125 45.078125 32.144531 46.5625 33.625 C 48.042969 35.109375 50.484375 35.097656 51.984375 33.597656 C 53.476562 32.101562 53.492188 29.664062 52.007812 28.179688 Z M 57.375 38.992188 C 61.878906 34.488281 61.917969 27.195312 57.457031 22.730469 C 52.988281 18.265625 45.699219 18.304688 41.191406 22.8125 C 38.167969 25.835938 37.171875 30.09375 38.167969 33.921875 L 41.890625 32.898438 C 41.234375 30.347656 41.875 27.523438 43.890625 25.507812 C 46.898438 22.5 51.75 22.476562 54.730469 25.453125 C 57.710938 28.4375 57.6875 33.285156 54.679688 36.292969 C 52.660156 38.3125 49.839844 38.949219 47.285156 38.296875 L 46.265625 42.015625 C 50.09375 43.011719 54.351562 42.015625 57.375 38.992188 Z M 62.898438 17.285156 C 55.453125 9.839844 43.316406 9.898438 35.796875 17.417969 C 30.761719 22.457031 29.085938 29.550781 30.746094 35.921875 L 34.453125 34.917969 C 33.132812 29.8125 34.460938 24.144531 38.496094 20.113281 C 44.511719 14.097656 54.21875 14.046875 60.175781 20.007812 C 66.136719 25.96875 66.089844 35.671875 60.074219 41.6875 C 56.039062 45.722656 50.371094 47.050781 45.253906 45.71875 L 44.25 49.421875 C 50.632812 51.097656 57.730469 49.421875 62.769531 44.390625 C 70.289062 36.871094 70.347656 24.730469 62.898438 17.285156 Z M 62.898438 17.285156 "/>
<path style=" stroke:none;fill-rule:nonzero;fill:rgb(100%,100%,100%);fill-opacity:1;" d="M 27.617188 10.59375 L 64.644531 47.625 L 51.890625 60.382812 L 14.859375 23.351562 Z M 27.617188 10.59375 "/>
<path style=" stroke:none;fill-rule:nonzero;fill:rgb(100%,100%,100%);fill-opacity:1;" d="M 50.113281 1.25 L 63.59375 14.734375 L 28.613281 49.722656 L 15.125 36.234375 Z M 50.113281 1.25 "/>
<path style=" stroke:none;fill-rule:nonzero;fill:rgb(0%,0%,0%);fill-opacity:1;" d="M 94.277344 47.804688 L 97 47.804688 L 97 45.078125 L 94.277344 45.078125 Z M 101.089844 32.816406 C 103.351562 32.816406 105.160156 30.992188 105.160156 28.730469 L 105.175781 20.554688 C 105.175781 18.296875 103.351562 16.46875 101.089844 16.46875 C 98.828125 16.46875 97 18.296875 97 20.554688 L 97 28.730469 C 97 30.992188 98.828125 32.816406 101.089844 32.816406 Z M 99.726562 47.804688 L 102.453125 47.804688 L 102.453125 45.078125 L 99.726562 45.078125 Z M 105.175781 47.804688 L 107.898438 47.804688 L 107.898438 45.078125 L 105.175781 45.078125 Z M 110.625 28.730469 L 108.3125 28.730469 C 108.3125 32.816406 104.847656 35.679688 101.089844 35.679688 C 97.328125 35.679688 93.867188 32.816406 93.867188 28.730469 L 91.554688 28.730469 C 91.554688 33.375 95.257812 37.21875 99.726562 37.886719 L 99.726562 42.351562 L 102.453125 42.351562 L 102.453125 37.886719 C 106.917969 37.21875 110.625 33.375 110.625 28.730469 Z M 110.625 28.730469 "/>
<path style=" stroke:none;fill-rule:nonzero;fill:rgb(0%,0%,0%);fill-opacity:1;" d="M 20.445312 38.945312 C 19.628906 39.875 18.320312 40.308594 16.972656 40.308594 C 15.625 40.308594 14.316406 39.875 13.304688 39.082031 C 13.007812 38.851562 12.582031 38.90625 12.351562 39.203125 C 12.125 39.507812 12.179688 39.925781 12.476562 40.160156 C 13.714844 41.140625 15.320312 41.671875 16.972656 41.671875 C 18.617188 41.671875 20.230469 41.140625 21.480469 40.171875 C 21.78125 39.941406 21.835938 39.523438 21.601562 39.21875 C 21.371094 38.90625 20.9375 38.867188 20.445312 38.945312 Z M 13.632812 32.816406 C 13.632812 32.066406 12.953125 31.453125 12.203125 31.453125 C 11.449219 31.453125 10.839844 32.066406 10.839844 32.816406 C 10.839844 33.570312 11.449219 34.179688 12.203125 34.179688 C 12.953125 34.179688 13.5625 33.570312 13.632812 32.816406 Z M 17.039062 15.789062 C 7.9375 15.789062 0.625 23.105469 0.625 32.132812 C 0.625 41.167969 7.9375 48.480469 16.972656 48.480469 C 26 48.480469 33.320312 41.167969 33.320312 32.132812 C 33.320312 23.105469 26 15.789062 17.039062 15.789062 Z M 27.9375 36.21875 C 26.328125 41.074219 21.996094 44.773438 16.859375 44.773438 C 11.714844 44.773438 7.382812 41.074219 5.90625 35.960938 C 4.289062 35.816406 3.007812 34.355469 3.007812 32.53125 C 3.007812 30.800781 4.164062 29.382812 5.695312 29.125 C 8.539062 27.140625 10.867188 24.371094 11.59375 22.246094 L 11.59375 22.230469 C 13.101562 25.816406 19.84375 29.300781 27.378906 29.125 L 27.789062 29.085938 C 29.53125 29.085938 30.933594 30.640625 30.933594 32.542969 C 30.933594 34.421875 29.546875 35.960938 27.9375 36.21875 Z M 23.167969 32.816406 C 23.167969 32.066406 22.492188 31.453125 21.738281 31.453125 C 20.984375 31.453125 20.375 32.066406 20.375 32.816406 C 20.375 33.570312 20.984375 34.179688 21.738281 34.179688 C 22.492188 34.179688 23.101562 33.570312 23.167969 32.816406 Z M 23.167969 32.816406 "/>
<path style=" stroke:none;fill-rule:nonzero;fill:rgb(0%,0%,0%);fill-opacity:1;" d="M 318.890625 25.359375 L 318.890625 24.675781 L 318.109375 24.675781 C 317.964844 24.675781 317.824219 24.710938 317.679688 24.773438 C 317.535156 24.84375 317.40625 24.941406 317.289062 25.066406 C 317.171875 25.183594 317.074219 25.335938 316.996094 25.515625 C 316.917969 25.703125 316.878906 25.90625 316.878906 26.140625 L 316.878906 28.191406 C 316.878906 28.386719 316.851562 28.574219 316.800781 28.738281 C 316.75 28.910156 316.675781 29.050781 316.585938 29.167969 C 316.507812 29.277344 316.410156 29.359375 316.292969 29.421875 C 316.1875 29.492188 316.078125 29.519531 315.960938 29.519531 L 315.960938 30.28125 C 316.078125 30.28125 316.1875 30.316406 316.292969 30.378906 C 316.410156 30.449219 316.507812 30.535156 316.585938 30.652344 C 316.675781 30.761719 316.75 30.898438 316.800781 31.0625 C 316.851562 31.21875 316.878906 31.40625 316.878906 31.609375 L 316.878906 33.640625 C 316.878906 33.875 316.917969 34.082031 316.996094 34.265625 C 317.074219 34.460938 317.171875 34.617188 317.289062 34.734375 C 317.40625 34.863281 317.535156 34.953125 317.679688 35.007812 C 317.824219 35.070312 317.964844 35.105469 318.109375 35.105469 L 318.890625 35.105469 L 318.890625 34.441406 L 318.324219 34.441406 C 318.21875 34.441406 318.128906 34.40625 318.050781 34.34375 C 317.984375 34.289062 317.933594 34.21875 317.894531 34.128906 C 317.855469 34.035156 317.828125 33.933594 317.816406 33.816406 C 317.804688 33.699219 317.796875 33.582031 317.796875 33.464844 L 317.796875 31.433594 C 317.796875 31.152344 317.75 30.917969 317.660156 30.730469 C 317.582031 30.535156 317.492188 30.378906 317.386719 30.261719 C 317.28125 30.144531 317.179688 30.0625 317.074219 30.007812 C 316.96875 29.960938 316.878906 29.925781 316.800781 29.910156 L 316.800781 29.890625 C 316.878906 29.867188 316.96875 29.828125 317.074219 29.773438 C 317.179688 29.710938 317.28125 29.617188 317.386719 29.5 C 317.492188 29.382812 317.582031 29.238281 317.660156 29.050781 C 317.75 28.871094 317.796875 28.640625 317.796875 28.367188 L 317.796875 26.316406 C 317.796875 26.199219 317.804688 26.082031 317.816406 25.964844 C 317.828125 25.847656 317.855469 25.746094 317.894531 25.652344 C 317.933594 25.566406 317.984375 25.492188 318.050781 25.4375 C 318.128906 25.390625 318.21875 25.359375 318.324219 25.359375 Z M 318.890625 25.359375 "/>
<path style=" stroke:none;fill-rule:nonzero;fill:rgb(0%,0%,0%);fill-opacity:1;" d="M 322.171875 33.679688 C 322.054688 33.964844 321.9375 34.207031 321.820312 34.402344 C 321.710938 34.597656 321.59375 34.753906 321.46875 34.871094 C 321.335938 35 321.195312 35.089844 321.039062 35.144531 C 320.882812 35.195312 320.691406 35.222656 320.472656 35.222656 C 320.363281 35.222656 320.257812 35.214844 320.140625 35.203125 C 320.023438 35.1875 319.910156 35.164062 319.808594 35.125 L 319.808594 34.246094 C 319.894531 34.285156 319.992188 34.316406 320.101562 34.34375 C 320.203125 34.367188 320.296875 34.382812 320.375 34.382812 C 320.570312 34.382812 320.730469 34.335938 320.863281 34.246094 C 320.988281 34.152344 321.097656 34.015625 321.175781 33.835938 L 321.566406 32.859375 L 319.261719 27.078125 L 320.335938 27.078125 L 322.035156 31.84375 L 322.054688 31.84375 L 323.695312 27.078125 L 324.691406 27.078125 Z M 322.171875 33.679688 "/>
<path style=" stroke:none;fill-rule:nonzero;fill:rgb(0%,0%,0%);fill-opacity:1;" d="M 329.554688 29.441406 L 326.214844 29.441406 C 326.222656 29.207031 326.273438 28.992188 326.351562 28.796875 C 326.429688 28.601562 326.535156 28.4375 326.683594 28.289062 C 326.824219 28.132812 326.996094 28.011719 327.191406 27.917969 C 327.394531 27.832031 327.625 27.78125 327.875 27.78125 C 328.109375 27.78125 328.324219 27.832031 328.519531 27.917969 C 328.722656 28.011719 328.898438 28.128906 329.046875 28.269531 C 329.1875 28.417969 329.300781 28.59375 329.378906 28.796875 C 329.464844 28.992188 329.523438 29.207031 329.554688 29.441406 Z M 330.472656 31.0625 L 329.515625 31.0625 C 329.4375 31.445312 329.265625 31.726562 329.007812 31.921875 C 328.742188 32.109375 328.410156 32.195312 328.011719 32.195312 C 327.699219 32.195312 327.425781 32.148438 327.191406 32.039062 C 326.957031 31.9375 326.761719 31.800781 326.605469 31.628906 C 326.457031 31.449219 326.355469 31.238281 326.292969 31.003906 C 326.222656 30.769531 326.199219 30.53125 326.214844 30.28125 L 330.550781 30.28125 C 330.574219 29.929688 330.550781 29.558594 330.472656 29.167969 C 330.394531 28.777344 330.246094 28.421875 330.042969 28.09375 C 329.832031 27.757812 329.554688 27.484375 329.203125 27.273438 C 328.859375 27.054688 328.441406 26.941406 327.933594 26.941406 C 327.527344 26.941406 327.15625 27.019531 326.820312 27.175781 C 326.492188 27.324219 326.203125 27.527344 325.960938 27.800781 C 325.710938 28.074219 325.519531 28.398438 325.394531 28.757812 C 325.261719 29.125 325.199219 29.53125 325.199219 29.96875 C 325.207031 30.414062 325.277344 30.824219 325.394531 31.199219 C 325.511719 31.582031 325.675781 31.902344 325.902344 32.175781 C 326.136719 32.441406 326.417969 32.644531 326.761719 32.800781 C 327.113281 32.941406 327.523438 33.015625 327.992188 33.015625 C 328.640625 33.015625 329.183594 32.855469 329.613281 32.527344 C 330.050781 32.207031 330.339844 31.71875 330.472656 31.0625 Z M 330.472656 31.0625 "/>
<path style=" stroke:none;fill-rule:nonzero;fill:rgb(0%,0%,0%);fill-opacity:1;" d="M 332.136719 31.0625 L 331.179688 31.0625 C 331.191406 31.429688 331.261719 31.738281 331.394531 31.980469 C 331.535156 32.230469 331.71875 32.429688 331.941406 32.585938 C 332.160156 32.742188 332.414062 32.855469 332.703125 32.917969 C 333 32.980469 333.3125 33.015625 333.640625 33.015625 C 333.925781 33.015625 334.21875 32.988281 334.519531 32.9375 C 334.816406 32.890625 335.085938 32.792969 335.320312 32.644531 C 335.554688 32.503906 335.742188 32.3125 335.886719 32.078125 C 336.042969 31.84375 336.121094 31.550781 336.121094 31.199219 C 336.121094 30.925781 336.0625 30.703125 335.945312 30.515625 C 335.839844 30.320312 335.695312 30.164062 335.515625 30.046875 C 335.34375 29.921875 335.144531 29.8125 334.910156 29.734375 C 334.6875 29.65625 334.453125 29.59375 334.207031 29.539062 C 333.984375 29.492188 333.761719 29.441406 333.542969 29.402344 C 333.320312 29.355469 333.117188 29.296875 332.9375 29.226562 C 332.753906 29.148438 332.605469 29.0625 332.488281 28.953125 C 332.371094 28.835938 332.3125 28.699219 332.3125 28.542969 C 332.3125 28.386719 332.351562 28.265625 332.429688 28.171875 C 332.507812 28.085938 332.605469 28.011719 332.722656 27.957031 C 332.839844 27.894531 332.96875 27.851562 333.113281 27.820312 C 333.253906 27.796875 333.398438 27.78125 333.542969 27.78125 C 333.699219 27.78125 333.855469 27.800781 334.011719 27.839844 C 334.167969 27.878906 334.308594 27.9375 334.441406 28.015625 C 334.570312 28.085938 334.675781 28.183594 334.753906 28.308594 C 334.832031 28.425781 334.882812 28.582031 334.910156 28.777344 L 335.847656 28.777344 C 335.832031 28.425781 335.761719 28.132812 335.632812 27.898438 C 335.5 27.65625 335.324219 27.464844 335.105469 27.332031 C 334.894531 27.191406 334.65625 27.09375 334.382812 27.039062 C 334.109375 26.976562 333.800781 26.941406 333.464844 26.941406 C 333.214844 26.941406 332.960938 26.976562 332.703125 27.039062 C 332.441406 27.109375 332.207031 27.207031 332 27.332031 C 331.789062 27.464844 331.621094 27.640625 331.492188 27.859375 C 331.359375 28.070312 331.296875 28.320312 331.296875 28.601562 C 331.296875 28.984375 331.386719 29.277344 331.570312 29.480469 C 331.765625 29.691406 332 29.851562 332.273438 29.96875 C 332.558594 30.085938 332.863281 30.179688 333.191406 30.242188 C 333.527344 30.3125 333.835938 30.378906 334.109375 30.457031 C 334.394531 30.535156 334.628906 30.644531 334.8125 30.769531 C 335.007812 30.886719 335.105469 31.074219 335.105469 31.316406 C 335.105469 31.503906 335.058594 31.648438 334.96875 31.765625 C 334.875 31.882812 334.757812 31.976562 334.617188 32.039062 C 334.484375 32.09375 334.335938 32.132812 334.167969 32.15625 C 333.996094 32.1875 333.839844 32.195312 333.699219 32.195312 C 333.503906 32.195312 333.3125 32.175781 333.132812 32.136719 C 332.949219 32.097656 332.78125 32.039062 332.625 31.960938 C 332.480469 31.875 332.363281 31.757812 332.273438 31.609375 C 332.179688 31.453125 332.136719 31.273438 332.136719 31.0625 Z M 332.136719 31.0625 "/>
<path style=" stroke:none;fill-rule:nonzero;fill:rgb(0%,0%,0%);fill-opacity:1;" d="M 337.390625 31.648438 L 337.390625 32.898438 L 338.054688 32.898438 C 338.054688 32.988281 338.039062 33.085938 338.015625 33.191406 C 338 33.292969 337.96875 33.398438 337.917969 33.503906 C 337.863281 33.605469 337.792969 33.699219 337.703125 33.777344 C 337.625 33.867188 337.519531 33.933594 337.390625 33.972656 L 337.390625 34.539062 C 337.832031 34.40625 338.152344 34.1875 338.347656 33.875 C 338.542969 33.574219 338.640625 33.210938 338.640625 32.78125 L 338.640625 31.648438 Z M 337.390625 31.648438 "/>
<path style=" stroke:none;fill-rule:nonzero;fill:rgb(0%,0%,0%);fill-opacity:1;" d="M 343.429688 27.078125 L 343.429688 32.898438 L 344.386719 32.898438 L 344.386719 29.617188 C 344.386719 29.359375 344.417969 29.121094 344.484375 28.894531 C 344.5625 28.675781 344.671875 28.480469 344.816406 28.308594 C 344.960938 28.144531 345.136719 28.011719 345.34375 27.917969 C 345.550781 27.832031 345.804688 27.78125 346.105469 27.78125 C 346.46875 27.78125 346.757812 27.894531 346.964844 28.113281 C 347.171875 28.324219 347.277344 28.601562 347.277344 28.953125 L 347.277344 32.898438 L 348.234375 32.898438 L 348.234375 29.070312 C 348.234375 28.757812 348.203125 28.476562 348.136719 28.210938 C 348.085938 27.953125 347.972656 27.734375 347.804688 27.546875 C 347.648438 27.351562 347.441406 27.207031 347.179688 27.097656 C 346.933594 26.996094 346.621094 26.941406 346.242188 26.941406 C 345.382812 26.941406 344.75 27.292969 344.347656 27.996094 L 344.328125 27.996094 L 344.328125 27.078125 Z M 343.429688 27.078125 "/>
<path style=" stroke:none;fill-rule:nonzero;fill:rgb(0%,0%,0%);fill-opacity:1;" d="M 350.390625 29.988281 C 350.390625 29.636719 350.433594 29.324219 350.527344 29.050781 C 350.613281 28.777344 350.742188 28.554688 350.898438 28.367188 C 351.0625 28.171875 351.257812 28.03125 351.484375 27.9375 C 351.703125 27.835938 351.9375 27.78125 352.1875 27.78125 C 352.429688 27.78125 352.664062 27.835938 352.890625 27.9375 C 353.109375 28.03125 353.304688 28.171875 353.476562 28.367188 C 353.640625 28.554688 353.773438 28.777344 353.867188 29.050781 C 353.953125 29.324219 354.003906 29.636719 354.003906 29.988281 C 354.003906 30.339844 353.953125 30.664062 353.867188 30.945312 C 353.773438 31.21875 353.640625 31.449219 353.476562 31.628906 C 353.304688 31.816406 353.109375 31.957031 352.890625 32.058594 C 352.664062 32.152344 352.429688 32.195312 352.1875 32.195312 C 351.9375 32.195312 351.703125 32.152344 351.484375 32.058594 C 351.257812 31.957031 351.0625 31.816406 350.898438 31.628906 C 350.742188 31.449219 350.613281 31.21875 350.527344 30.945312 C 350.433594 30.664062 350.390625 30.339844 350.390625 29.988281 Z M 349.375 29.988281 C 349.375 30.417969 349.433594 30.824219 349.550781 31.199219 C 349.667969 31.566406 349.84375 31.882812 350.078125 32.15625 C 350.320312 32.429688 350.625 32.644531 350.976562 32.800781 C 351.328125 32.941406 351.726562 33.015625 352.1875 33.015625 C 352.65625 33.015625 353.066406 32.941406 353.417969 32.800781 C 353.769531 32.644531 354.0625 32.429688 354.296875 32.15625 C 354.53125 31.882812 354.707031 31.566406 354.824219 31.199219 C 354.949219 30.824219 355.019531 30.417969 355.019531 29.988281 C 355.019531 29.574219 354.949219 29.183594 354.824219 28.816406 C 354.707031 28.441406 354.53125 28.113281 354.296875 27.839844 C 354.0625 27.558594 353.769531 27.332031 353.417969 27.175781 C 353.066406 27.019531 352.65625 26.941406 352.1875 26.941406 C 351.726562 26.941406 351.328125 27.019531 350.976562 27.175781 C 350.625 27.332031 350.320312 27.558594 350.078125 27.839844 C 349.84375 28.113281 349.667969 28.441406 349.550781 28.816406 C 349.433594 29.183594 349.375 29.574219 349.375 29.988281 Z M 349.375 29.988281 "/>
<path style=" stroke:none;fill-rule:nonzero;fill:rgb(0%,0%,0%);fill-opacity:1;" d="M 355.695312 34.441406 L 355.695312 35.105469 L 356.476562 35.105469 C 356.617188 35.105469 356.757812 35.070312 356.90625 35.007812 C 357.046875 34.953125 357.179688 34.863281 357.296875 34.734375 C 357.414062 34.617188 357.5 34.460938 357.570312 34.265625 C 357.648438 34.082031 357.6875 33.875 357.6875 33.640625 L 357.6875 31.609375 C 357.6875 31.414062 357.710938 31.238281 357.765625 31.082031 C 357.8125 30.917969 357.886719 30.769531 357.980469 30.652344 C 358.066406 30.535156 358.164062 30.449219 358.273438 30.378906 C 358.390625 30.316406 358.507812 30.28125 358.625 30.28125 L 358.625 29.519531 C 358.507812 29.519531 358.390625 29.496094 358.273438 29.441406 C 358.164062 29.378906 358.066406 29.285156 357.980469 29.167969 C 357.886719 29.050781 357.8125 28.914062 357.765625 28.757812 C 357.710938 28.59375 357.6875 28.402344 357.6875 28.191406 L 357.6875 26.140625 C 357.6875 25.90625 357.648438 25.703125 357.570312 25.515625 C 357.5 25.335938 357.414062 25.183594 357.296875 25.066406 C 357.179688 24.941406 357.046875 24.84375 356.90625 24.773438 C 356.757812 24.710938 356.617188 24.675781 356.476562 24.675781 L 355.695312 24.675781 L 355.695312 25.359375 L 356.261719 25.359375 C 356.363281 25.359375 356.445312 25.390625 356.515625 25.4375 C 356.59375 25.492188 356.652344 25.570312 356.691406 25.671875 C 356.730469 25.765625 356.753906 25.867188 356.769531 25.984375 C 356.777344 26.09375 356.789062 26.210938 356.789062 26.335938 L 356.789062 28.367188 C 356.789062 28.65625 356.828125 28.894531 356.90625 29.089844 C 356.984375 29.277344 357.070312 29.421875 357.179688 29.539062 C 357.28125 29.65625 357.382812 29.746094 357.492188 29.792969 C 357.609375 29.847656 357.695312 29.882812 357.765625 29.890625 L 357.765625 29.910156 C 357.695312 29.941406 357.609375 29.984375 357.492188 30.046875 C 357.382812 30.101562 357.28125 30.183594 357.179688 30.300781 C 357.070312 30.417969 356.984375 30.570312 356.90625 30.75 C 356.828125 30.9375 356.789062 31.160156 356.789062 31.433594 L 356.789062 33.464844 C 356.789062 33.59375 356.777344 33.710938 356.769531 33.816406 C 356.753906 33.933594 356.730469 34.035156 356.691406 34.128906 C 356.652344 34.21875 356.59375 34.289062 356.515625 34.34375 C 356.445312 34.40625 356.363281 34.441406 356.261719 34.441406 Z M 355.695312 34.441406 "/>
<path style="fill:none;stroke-width:1;stroke-linecap:round;stroke-linejoin:round;stroke:rgb(0%,0%,0%);stroke-opacity:1;stroke-miterlimit:10;" d="M 111.5 35.25625 L 129.6 35.18125 " transform="matrix(1.25,0,0,1.25,-17.5,-13.75)"/>
<path style="fill:none;stroke-width:1;stroke-linecap:butt;stroke-linejoin:miter;stroke:rgb(0%,0%,0%);stroke-opacity:1;stroke-miterlimit:10;" d="M 133.6 35.159375 L 129.6 35.18125 M 129.59375 33.68125 L 133.6 35.159375 L 129.60625 36.68125 " transform="matrix(1.25,0,0,1.25,-17.5,-13.75)"/>
<path style="fill:none;stroke-width:1;stroke-linecap:round;stroke-linejoin:round;stroke:rgb(0%,0%,0%);stroke-opacity:1;stroke-miterlimit:10;" d="M 232.5 35.25625 L 250.6 35.18125 " transform="matrix(1.25,0,0,1.25,-17.5,-13.75)"/>
<path style="fill:none;stroke-width:1;stroke-linecap:butt;stroke-linejoin:miter;stroke:rgb(0%,0%,0%);stroke-opacity:1;stroke-miterlimit:10;" d="M 254.6 35.159375 L 250.6 35.18125 M 250.59375 33.68125 L 254.6 35.159375 L 250.60625 36.68125 " transform="matrix(1.25,0,0,1.25,-17.5,-13.75)"/>
</g>
</svg>
