<?xml version="1.0" encoding="UTF-8" standalone="no"?><!DOCTYPE svg PUBLIC "-//W3C//DTD SVG 1.1//EN" "http://www.w3.org/Graphics/SVG/1.1/DTD/svg11.dtd"><svg width="100%" height="100%" viewBox="0 0 1042 563" version="1.1" xmlns="http://www.w3.org/2000/svg" xmlns:xlink="http://www.w3.org/1999/xlink" xml:space="preserve" xmlns:serif="http://www.serif.com/" style="fill-rule:evenodd;clip-rule:evenodd;stroke-linecap:round;stroke-linejoin:round;stroke-miterlimit:1.5;"><rect id="D2L-VN-Contribute" serif:id="D2L-VN Contribute" x="0" y="0" width="1041.42" height="562.29" style="fill:none;"/><g><path d="M404.009,346.163l0,-5.706l15.187,7.3l-15.187,7.301l0,-5.706l-105.942,0l0,-3.189l105.942,0Z" style="fill:#3c3c3c;"/></g><g><path d="M726.371,346.255l0,-5.706l15.188,7.3l-15.188,7.301l0,-5.706l-105.941,0l0,-3.189l105.941,0Z" style="fill:#3c3c3c;"/></g><g><path d="M846.654,291.629l8.027,0l-10.27,14.434l-10.269,-14.434l8.026,0l0,-100.685l4.486,0l0,100.685Z" style="fill:#3c3c3c;"/></g><g><path d="M257.211,162.434l-56.767,0l0,144.283l-5.789,0l0,-150.064l0.565,0l0,-0.008l61.991,0l0,5.789Z" style="fill:#3c3c3c;"/><path d="M522.461,156.601l0,149.832l-5.789,0l0,-144.006l-60.002,0l0,-5.789l60.002,0l0,-0.037l5.789,0Z" style="fill:#3c3c3c;"/></g><path d="M500.106,390.364c12.088,10.097 160.677,57.06 188.336,56.917c56.576,-0.292 174.404,-57.208 175.768,-57.024" style="fill:none;stroke:#222;stroke-width:4px;"/><g><path d="M298.334,313.504c0,-4.38 -3.556,-7.936 -7.935,-7.936l-185.655,0c-4.38,0 -7.935,3.556 -7.935,7.936l0,68.867c0,4.38 3.555,7.936 7.935,7.936l185.655,0c4.379,0 7.935,-3.556 7.935,-7.936l0,-68.867Z" style="fill:#005ac3;"/><g transform="matrix(0.490544,0,0,0.490544,-166.041,-74.8661)"><text x="562.899px" y="853.57px" style="font-family:'SFProDisplay-Regular', 'SF Pro Display';font-size:50px;fill:#fff;">Github của dự án</text><text x="590.866px" y="903.57px" style="font-family:'SFProDisplay-Bold', 'SF Pro Display';font-weight:700;font-size:50px;fill:#fff;">aivivn/<tspan x="742.648px " y="903.57px ">d</tspan>2l-<tspan x="836.422px " y="903.57px ">v</tspan>n</text></g></g><g><path d="M458.393,125.133c0,-4.38 -3.556,-7.935 -7.935,-7.935l-185.655,0c-4.38,0 -7.936,3.555 -7.936,7.935l0,68.867c0,4.38 3.556,7.936 7.936,7.936l185.655,0c4.379,0 7.935,-3.556 7.935,-7.936l0,-68.867Z" style="fill:url(#_Linear1);"/><g transform="matrix(0.490544,0,0,0.490544,-5.98213,-263.237)"><text x="576.181px" y="853.57px" style="font-family:'SFProDisplay-Regular', 'SF Pro Display';font-size:50px;fill:#fff;">Nhóm điều phối</text><text x="635.482px" y="903.57px" style="font-family:'SFProDisplay-Regular', 'SF Pro Display';font-size:50px;fill:#fff;">thông qua</text></g></g><g><path d="M944.616,114.674c0,-4.38 -3.556,-7.936 -7.936,-7.936l-185.654,0c-4.38,0 -7.936,3.556 -7.936,7.936l0,68.867c0,4.38 3.556,7.936 7.936,7.936l185.654,0c4.38,0 7.936,-3.556 7.936,-7.936l0,-68.867Z" style="fill:url(#_Linear2);"/><g transform="matrix(0.490544,0,0,0.490544,480.24,-273.696)"><text x="637.289px" y="853.57px" style="font-family:'SFProDisplay-Regular', 'SF Pro Display';font-size:50px;fill:#fff;">Thự<tspan x="720.785px " y="853.57px ">c</tspan> hiện</text><text x="615.463px" y="903.57px" style="font-family:'SFProDisplay-Regular', 'SF Pro Display';font-size:50px;fill:#fff;">các thay đổi</text></g></g><g><path d="M620.501,313.504c0,-4.38 -3.555,-7.936 -7.935,-7.936l-185.655,0c-4.38,0 -7.935,3.556 -7.935,7.936l0,68.867c0,4.38 3.555,7.936 7.935,7.936l185.655,0c4.38,0 7.935,-3.556 7.935,-7.936l0,-68.867Z" style="fill:#22d7a2;"/><g transform="matrix(0.490544,0,0,0.490544,156.126,-74.8661)"><text x="582.369px" y="853.57px" style="font-family:'SFProDisplay-Regular', 'SF Pro Display';font-size:50px;fill:#fff;">Github của bạn</text><text x="607.455px" y="903.57px" style="font-family:'SFProDisplay-Bold', 'SF Pro Display';font-weight:700;font-size:50px;fill:#fff;">user<tspan x="707.211px 726.058px " y="903.57px 903.57px ">/d</tspan>2l-<tspan x="819.833px " y="903.57px ">v</tspan>n</text></g></g><g><path d="M943.286,313.504c0,-4.38 -3.556,-7.936 -7.936,-7.936l-185.655,0c-4.379,0 -7.935,3.556 -7.935,7.936l0,68.867c0,4.38 3.556,7.936 7.935,7.936l185.655,0c4.38,0 7.936,-3.556 7.936,-7.936l0,-68.867Z" style="fill:#22d7a2;"/><g transform="matrix(0.490544,0,0,0.490544,478.91,-74.8661)"><text x="578.219px" y="853.57px" style="font-family:'SFProDisplay-Regular', 'SF Pro Display';font-size:50px;fill:#fff;">Bản sao</text><text x="755.294px" y="853.57px" style="font-family:'SFProDisplay-Bold', 'SF Pro Display';font-weight:700;font-size:50px;fill:#fff;">d2l-<tspan x="849.069px " y="853.57px ">v</tspan>n</text><text x="561.618px" y="903.57px" style="font-family:'SFProDisplay-Regular', 'SF Pro Display';font-size:50px;fill:#fff;">tr<tspan x="590.866px " y="903.57px ">ê</tspan>n máy tính bạn</text></g></g><g><path d="M234.097,226.419c0,-1.528 -1.24,-2.769 -2.768,-2.769l-73.42,0c-1.528,0 -2.769,1.241 -2.769,2.769l0,19.092c0,1.528 1.241,2.769 2.769,2.769l73.42,0c1.528,0 2.768,-1.241 2.768,-2.769l0,-19.092Z" style="fill:#6f42c1;"/><g><text x="176.526px" y="240.961px" style="font-family:'SFProDisplay-Bold', 'SF Pro Display';font-weight:700;font-size:17.615px;fill:#fff;">Mer<tspan x="207.618px " y="240.961px ">g</tspan>e</text><path d="M170.946,234.991c-0.725,0 -1.35,0.4 -1.684,0.988c-0.088,-0.006 -0.174,-0.014 -0.265,-0.014c-1.995,0 -3.889,-1.52 -4.58,-3.402c0.416,-0.357 0.683,-0.88 0.683,-1.47c0,-1.076 -0.874,-1.949 -1.949,-1.949c-1.076,0 -1.949,0.873 -1.949,1.949c0,0.719 0.393,1.341 0.974,1.679l0,6.386c-0.581,0.338 -0.974,0.96 -0.974,1.679c0,1.075 0.873,1.949 1.949,1.949c1.075,0 1.949,-0.874 1.949,-1.949c0,-0.719 -0.394,-1.341 -0.975,-1.679l0,-3.506c1.281,1.356 3.051,2.262 4.872,2.262c0.097,0 0.177,-0.007 0.265,-0.01c0.336,0.585 0.961,0.984 1.684,0.984c1.075,0 1.948,-0.873 1.948,-1.949c0,-1.075 -0.873,-1.948 -1.948,-1.948Zm-7.795,6.82c-0.538,0 -0.975,-0.436 -0.975,-0.974c0,-0.538 0.437,-0.975 0.975,-0.975c0.539,0 0.974,0.437 0.974,0.975c0,0.538 -0.435,0.974 -0.974,0.974Zm0,-9.744c-0.538,0 -0.975,-0.435 -0.975,-0.974c0,-0.539 0.437,-0.974 0.975,-0.974c0.539,0 0.974,0.435 0.974,0.974c0,0.539 -0.435,0.974 -0.974,0.974Zm7.795,5.847c-0.538,0 -0.975,-0.436 -0.975,-0.975c0,-0.539 0.437,-0.974 0.975,-0.974c0.538,0 0.974,0.435 0.974,0.974c0,0.539 -0.436,0.975 -0.974,0.975Z" style="fill:#fff;fill-rule:nonzero;"/></g></g><g><path d="M389.04,338.183c0,-1.528 -1.24,-2.768 -2.768,-2.768l-66.151,0c-1.527,0 -2.768,1.24 -2.768,2.768l0,19.093c0,1.527 1.241,2.768 2.768,2.768l66.151,0c1.528,0 2.768,-1.241 2.768,-2.768l0,-19.093Z" style="fill:#005ac3;"/><g><text x="342.134px" y="352.726px" style="font-family:'SFProDisplay-Bold', 'SF Pro Display';font-weight:700;font-size:17.615px;fill:#fff;">F<tspan x="351.535px " y="352.726px ">o</tspan>rk</text><path d="M328.396,340.768c-0.156,0.02 -0.378,0.084 -0.526,0.15c-0.603,0.264 -1.016,0.777 -1.158,1.439c-0.039,0.184 -0.04,0.58 -0.001,0.762c0.113,0.529 0.414,0.978 0.855,1.272l0.106,0.071l0,0.889l0,0.891l1.495,1.496l1.496,1.495l0,0.882l0,0.881l-0.089,0.06c-0.592,0.389 -0.938,1.062 -0.904,1.752c0.016,0.304 0.081,0.548 0.223,0.826c0.273,0.532 0.767,0.906 1.377,1.037c0.186,0.041 0.594,0.041 0.779,0c0.611,-0.131 1.104,-0.505 1.377,-1.037c0.142,-0.278 0.207,-0.522 0.223,-0.826c0.034,-0.69 -0.312,-1.363 -0.902,-1.752l-0.09,-0.06l0,-1.763l2.99,-2.991l0,-1.78l0.106,-0.071c0.441,-0.294 0.742,-0.743 0.856,-1.272c0.039,-0.182 0.037,-0.578 -0.002,-0.764c-0.174,-0.808 -0.762,-1.395 -1.572,-1.568c-0.177,-0.038 -0.592,-0.038 -0.769,0c-0.407,0.087 -0.745,0.268 -1.025,0.548c-0.282,0.285 -0.46,0.615 -0.547,1.022c-0.039,0.184 -0.041,0.58 -0.002,0.762c0.114,0.529 0.415,0.978 0.857,1.272l0.105,0.071l0,0.634l0,0.634l-0.99,0.987c-0.543,0.544 -0.997,0.989 -1.004,0.989c-0.008,0 -0.462,-0.445 -1.005,-0.989l-0.989,-0.987l0,-1.268l0.106,-0.071c0.44,-0.294 0.741,-0.743 0.855,-1.272c0.039,-0.182 0.037,-0.578 -0.002,-0.764c-0.173,-0.805 -0.765,-1.398 -1.564,-1.565c-0.143,-0.031 -0.514,-0.044 -0.665,-0.022Zm0.576,0.816c0.401,0.106 0.748,0.455 0.86,0.865c0.038,0.139 0.038,0.45 -0.001,0.592c-0.087,0.329 -0.332,0.626 -0.64,0.777c-0.187,0.094 -0.295,0.117 -0.522,0.117c-0.228,0 -0.335,-0.023 -0.522,-0.117c-0.237,-0.117 -0.435,-0.314 -0.552,-0.551c-0.079,-0.161 -0.109,-0.276 -0.121,-0.46c-0.02,-0.339 0.101,-0.652 0.353,-0.905c0.178,-0.177 0.404,-0.297 0.641,-0.339c0.113,-0.021 0.389,-0.008 0.504,0.021Zm5.982,0c0.401,0.106 0.748,0.455 0.86,0.865c0.038,0.139 0.038,0.45 -0.001,0.592c-0.088,0.329 -0.332,0.626 -0.641,0.777c-0.187,0.094 -0.294,0.117 -0.521,0.117c-0.228,0 -0.335,-0.023 -0.522,-0.117c-0.237,-0.117 -0.435,-0.314 -0.552,-0.551c-0.079,-0.161 -0.109,-0.276 -0.121,-0.46c-0.021,-0.339 0.101,-0.652 0.353,-0.905c0.178,-0.177 0.404,-0.297 0.641,-0.339c0.113,-0.021 0.389,-0.008 0.504,0.021Zm-2.991,9.97c0.402,0.108 0.75,0.457 0.859,0.865c0.039,0.138 0.039,0.453 0,0.592c-0.111,0.409 -0.455,0.754 -0.866,0.866c-0.141,0.039 -0.452,0.039 -0.592,0c-0.329,-0.089 -0.63,-0.335 -0.778,-0.637c-0.093,-0.192 -0.117,-0.298 -0.117,-0.525c0,-0.228 0.024,-0.334 0.116,-0.522c0.174,-0.354 0.515,-0.605 0.911,-0.668c0.086,-0.013 0.372,0.004 0.467,0.029Z" style="fill:#fff;fill-rule:nonzero;"/></g></g><g><path d="M709.137,337.764c0,-1.528 -1.241,-2.769 -2.769,-2.769l-66.15,0c-1.528,0 -2.768,1.241 -2.768,2.769l0,19.092c0,1.528 1.24,2.768 2.768,2.768l66.15,0c1.528,0 2.769,-1.24 2.769,-2.768l0,-19.092Z" style="fill:#005ac3;"/><g><text x="658.49px" y="352.306px" style="font-family:'SFProDisplay-Bold', 'SF Pro Display';font-weight:700;font-size:17.615px;fill:#fff;">Clone</text><path d="M655.35,352.111l0,-7.097c0,-0.057 -0.02,-0.106 -0.062,-0.147c-0.041,-0.041 -0.09,-0.062 -0.146,-0.062l-7.098,0c-0.056,0 -0.105,0.021 -0.146,0.062c-0.042,0.041 -0.062,0.09 -0.062,0.147l0,7.097c0,0.056 0.02,0.105 0.062,0.147c0.041,0.041 0.09,0.062 0.146,0.062l7.098,0c0.056,0 0.105,-0.021 0.146,-0.062c0.042,-0.042 0.062,-0.091 0.062,-0.147Zm0.835,-7.097l0,7.097c0,0.287 -0.102,0.533 -0.306,0.737c-0.205,0.204 -0.45,0.307 -0.737,0.307l-7.098,0c-0.287,0 -0.532,-0.103 -0.737,-0.307c-0.204,-0.204 -0.306,-0.45 -0.306,-0.737l0,-7.097c0,-0.287 0.102,-0.533 0.306,-0.737c0.205,-0.205 0.45,-0.307 0.737,-0.307l7.098,0c0.287,0 0.532,0.102 0.737,0.307c0.204,0.204 0.306,0.45 0.306,0.737Zm-2.505,-2.505l0,1.044l-0.834,0l0,-1.044c0,-0.057 -0.021,-0.106 -0.062,-0.147c-0.042,-0.041 -0.091,-0.062 -0.147,-0.062l-7.097,0c-0.057,0 -0.106,0.021 -0.147,0.062c-0.041,0.041 -0.062,0.09 -0.062,0.147l0,7.097c0,0.057 0.021,0.105 0.062,0.147c0.041,0.041 0.09,0.062 0.147,0.062l1.043,0l0,0.835l-1.043,0c-0.287,0 -0.533,-0.103 -0.737,-0.307c-0.205,-0.204 -0.307,-0.45 -0.307,-0.737l0,-7.097c0,-0.287 0.102,-0.533 0.307,-0.737c0.204,-0.205 0.45,-0.307 0.737,-0.307l7.097,0c0.287,0 0.532,0.102 0.737,0.307c0.204,0.204 0.306,0.45 0.306,0.737Z" style="fill:#fff;fill-rule:nonzero;"/></g></g><g><path d="M584.675,226.931c0,-1.811 -1.47,-3.281 -3.281,-3.281l-123.574,0c-1.811,0 -3.281,1.47 -3.281,3.281l0,18.068c0,1.811 1.47,3.281 3.281,3.281l123.574,0c1.811,0 3.281,-1.47 3.281,-3.281l0,-18.068Z" style="fill:#2cbf4e;"/><g><text x="477.315px" y="240.961px" style="font-family:'SFProDisplay-Bold', 'SF Pro Display';font-weight:700;font-size:17.615px;fill:#fff;">Pull Request</text><path d="M461.759,229.169c-1.033,0 -1.872,0.839 -1.872,1.872c0,0.691 0.379,1.289 0.936,1.614l0,6.135c-0.557,0.325 -0.936,0.922 -0.936,1.613c0,1.033 0.839,1.872 1.872,1.872c1.034,0 1.873,-0.839 1.873,-1.872c0,-0.691 -0.378,-1.288 -0.937,-1.613l0,-6.135c0.559,-0.325 0.937,-0.923 0.937,-1.614c0,-1.033 -0.839,-1.872 -1.873,-1.872Zm0,12.17c-0.516,0 -0.936,-0.419 -0.936,-0.936c0,-0.517 0.42,-0.936 0.936,-0.936c0.518,0 0.936,0.419 0.936,0.936c0,0.517 -0.418,0.936 -0.936,0.936Zm0,-9.361c-0.516,0 -0.936,-0.419 -0.936,-0.937c0,-0.517 0.42,-0.936 0.936,-0.936c0.518,0 0.936,0.419 0.936,0.936c0,0.518 -0.418,0.937 -0.936,0.937Zm8.426,6.812l0,-5.876c0,-2.816 -2.809,-2.809 -2.809,-2.809l-0.936,0l0,-1.872l-2.808,2.808l2.808,2.809l0,-1.872l0.936,0c0.826,0 0.936,0.936 0.936,0.936l0,5.876c-0.557,0.325 -0.936,0.921 -0.936,1.613c0,1.033 0.839,1.872 1.872,1.872c1.034,0 1.873,-0.839 1.873,-1.872c0,-0.691 -0.379,-1.288 -0.936,-1.613Zm-0.937,2.549c-0.516,0 -0.936,-0.419 -0.936,-0.936c0,-0.517 0.42,-0.936 0.936,-0.936c0.518,0 0.937,0.419 0.937,0.936c0,0.517 -0.419,0.936 -0.937,0.936Z" style="fill:#fff;fill-rule:nonzero;"/></g></g><g><path d="M722.866,433.691c0,-1.528 -1.241,-2.768 -2.769,-2.768l-66.15,0c-1.528,0 -2.768,1.24 -2.768,2.768l0,19.093c0,1.528 1.24,2.768 2.768,2.768l66.15,0c1.528,0 2.769,-1.24 2.769,-2.768l0,-19.093Z" style="fill:#2cbf4e;"/><g><text x="673.493px" y="448.234px" style="font-family:'SFProDisplay-Bold', 'SF Pro Display';font-weight:700;font-size:17.615px;fill:#fff;">Push</text><path d="M662.161,440.95l-2.287,3.05l1.525,0l0,5.336l1.524,0l0,-5.336l1.525,0l-2.287,-3.05Zm-2.287,0l0.763,0l0,-0.762l-0.763,0l0,0.762Zm0.763,-2.286l-0.763,0l0,0.762l0.763,0l0,-0.762Zm4.573,-1.525l-7.623,0c0,0 -0.762,0 -0.762,0.762l0,9.148c0,0.762 0.762,0.762 0.762,0.762l1.525,0l0,1.525l1.525,-1.525l0,-1.524l-1.525,0l0,0.762l-0.762,0c-0.763,0 -0.763,-0.762 -0.763,-0.762l0,-0.763l3.05,0l0,-0.762l-1.525,0l0,-6.861l6.11,0l-0.012,6.861l-1.524,0l0,0.762l1.524,0l0,0.763c0,0.734 -0.762,0.762 -0.762,0.762l-0.762,0l0,0.762l1.524,0c0,0 0.763,-0.013 0.763,-0.762l0,-9.148c0,-0.762 -0.763,-0.762 -0.763,-0.762Z" style="fill:#fff;fill-rule:nonzero;"/></g></g><g><path d="M891.984,229.023c0,-1.528 -1.24,-2.769 -2.768,-2.769l-89.043,0c-1.528,0 -2.768,1.241 -2.768,2.769l0,19.092c0,1.528 1.24,2.768 2.768,2.768l89.043,0c1.528,0 2.768,-1.24 2.768,-2.768l0,-19.092Z" style="fill:#2cbf4e;"/><g><text x="820.535px" y="243.565px" style="font-family:'SFProDisplay-Bold', 'SF Pro Display';font-weight:700;font-size:17.615px;fill:#fff;">Commit</text><path d="M812.607,237.49c-0.48,-1.858 -2.154,-3.237 -4.162,-3.237c-2.008,0 -3.681,1.379 -4.162,3.237l-3.39,0l0,2.158l3.39,0c0.481,1.858 2.154,3.236 4.162,3.236c2.008,0 3.682,-1.378 4.162,-3.236l3.391,0l0,-2.158l-3.391,0Zm-4.162,3.237c-1.191,0 -2.158,-0.968 -2.158,-2.158c0,-1.191 0.967,-2.158 2.158,-2.158c1.191,0 2.158,0.967 2.158,2.158c0,1.19 -0.967,2.158 -2.158,2.158Z" style="fill:#fff;fill-rule:nonzero;"/></g></g><defs><linearGradient id="_Linear1" x1="0" y1="0" x2="1" y2="0" gradientUnits="userSpaceOnUse" gradientTransform="matrix(274.296,0,0,84.7384,254.945,151.876)"><stop offset="0" style="stop-color:#22d7a2;stop-opacity:1"/><stop offset="1" style="stop-color:#005ac3;stop-opacity:1"/></linearGradient><linearGradient id="_Linear2" x1="0" y1="0" x2="1" y2="0" gradientUnits="userSpaceOnUse" gradientTransform="matrix(274.296,0,0,84.7384,741.167,141.416)"><stop offset="0" style="stop-color:#22d7a2;stop-opacity:1"/><stop offset="1" style="stop-color:#005ac3;stop-opacity:1"/></linearGradient></defs></svg>